<svg width="634" height="374" xmlns="http://www.w3.org/2000/svg" xmlns:xlink="http://www.w3.org/1999/xlink" overflow="hidden"><defs><clipPath id="clip0"><rect x="0" y="0" width="634" height="374"/></clipPath></defs><g clip-path="url(#clip0)"><rect x="0" y="0" width="634" height="374.469" fill="#FFFFFF"/><path d="M180.5 49.431C180.5 24.0613 201.095 3.49505 226.501 3.49505L410.499 3.49505C435.905 3.49505 456.5 24.0613 456.5 49.431L456.5 324.04C456.5 349.409 435.905 369.975 410.499 369.975L226.501 369.975C201.095 369.975 180.5 349.409 180.5 324.04Z" stroke="#042433" stroke-width="3.00158" stroke-linecap="square" stroke-miterlimit="8" stroke-dasharray="9.00473 3.00158" fill="#FFFFFF" fill-rule="evenodd"/><text fill="#E97132" font-family="Aptos,Aptos_MSFontService,sans-serif" font-style="italic" font-weight="700" font-size="19.2362" transform="matrix(1 0 0 0.998584 282.743 27)">dSPACE</text><path d="M67.9037 18.9731 102.854 18.9731 137.805 18.9731 137.805 19.9717 102.854 19.9717 67.9037 19.9717Z" fill="#E97132" fill-rule="evenodd" transform="matrix(1.00142 0 0 1 215.034 9.20896)"/><text fill="#E97132" font-family="Aptos,Aptos_MSFontService,sans-serif" font-style="italic" font-weight="700" font-size="19.2362" transform="matrix(1 0 0 0.998584 249.185 50)">MocroLabBox</text><text fill="#E97132" font-family="Aptos,Aptos_MSFontService,sans-serif" font-style="italic" font-weight="700" font-size="19.2362" transform="matrix(1 0 0 0.998584 368.814 50)">-</text><text fill="#E97132" font-family="Aptos,Aptos_MSFontService,sans-serif" font-style="italic" font-weight="700" font-size="19.2362" transform="matrix(1 0 0 0.998584 375.318 50)">II</text><path d="M33.9519 18.9731 79.8867 18.9731 125.822 18.9731 171.757 18.9731 171.757 19.9717 125.822 19.9717 79.8867 19.9717 33.9519 19.9717Z" fill="#E97132" fill-rule="evenodd" transform="matrix(1.00142 0 0 1 215.034 32.1764)"/><path d="M256.5 175.252 332 143.297 407.5 175.252 332 207.206Z" stroke="#042433" stroke-width="1.33403" stroke-miterlimit="8" fill="#FFFFFF" fill-rule="evenodd"/><text fill="#FFFFFF" font-family="Aptos,Aptos_MSFontService,sans-serif" font-weight="400" font-size="15.1199" transform="matrix(1 0 0 0.998584 308.668 170)">If delta</text><text fill="#FFFFFF" font-family="Aptos,Aptos_MSFontService,sans-serif" font-weight="400" font-size="15.1199" transform="matrix(1 0 0 0.998584 322.755 188)">p&gt;</text><rect x="256.5" y="76.3917" width="145" height="49.9293" stroke="#000000" stroke-width="1.00053" stroke-linejoin="round" stroke-miterlimit="10" fill="none"/><text font-family="Aptos,Aptos_MSFontService,sans-serif" font-weight="700" font-size="16.4786" transform="matrix(1 0 0 0.998584 268.769 96)">Identification of</text><text font-family="Aptos,Aptos_MSFontService,sans-serif" font-weight="700" font-size="16.4786" transform="matrix(1 0 0 0.998584 282.749 116)">load change</text><rect x="188.5" y="284.097" width="125" height="29.9576" stroke="#000000" stroke-width="1.00053" stroke-linejoin="round" stroke-miterlimit="10" fill="none"/><text font-family="Aptos,Aptos_MSFontService,sans-serif" font-weight="700" font-size="16.4786" transform="matrix(1 0 0 0.998584 198.216 303)">Optimal gains</text><rect x="322.5" y="284.097" width="125" height="29.9576" stroke="#000000" stroke-width="0.667017" stroke-linejoin="round" stroke-miterlimit="10" fill="none"/><text font-family="Aptos,Aptos_MSFontService,sans-serif" font-weight="700" font-size="16.4786" transform="matrix(1 0 0 0.998584 334.592 303)">Normal gains</text><rect x="262.5" y="331.031" width="125" height="29.9576" stroke="#000000" stroke-width="1.00053" stroke-linejoin="round" stroke-miterlimit="10" fill="none"/><text font-family="Aptos,Aptos_MSFontService,sans-serif" font-weight="700" font-size="16.4786" transform="matrix(1 0 0 0.998584 274.147 350)">Send to RTDS</text><rect x="188.5" y="220.188" width="129" height="49.9292" stroke="#000000" stroke-width="1.00053" stroke-linejoin="round" stroke-miterlimit="10" fill="none"/><text font-family="Aptos,Aptos_MSFontService,sans-serif" font-weight="700" font-size="16.4786" transform="matrix(1 0 0 0.998584 205.188 239)">Contingency</text><text font-family="Aptos,Aptos_MSFontService,sans-serif" font-weight="700" font-size="16.4786" transform="matrix(1 0 0 0.998584 219.622 259)">mapping</text><path d="M0.999158 6.66072 0.999214 14.4598-0.999005 14.4598-0.999061 6.66074ZM-3.99638 7.99291 0 0 3.9965 7.99285Z" fill="#3A3A3A" transform="matrix(1.00142 0 0 -1 244 284.078)"/><path d="M0.999158 6.66072 0.999214 14.4598-0.999005 14.4598-0.999061 6.66074ZM-3.99638 7.99291 0 0 3.9965 7.99285Z" fill="#3A3A3A" transform="matrix(1.00142 0 0 -1 253 284.078)"/><path d="M0.999158 6.66072 0.999214 14.4598-0.999005 14.4598-0.999061 6.66074ZM-3.99638 7.99291 0 0 3.9965 7.99285Z" fill="#3A3A3A" transform="matrix(1.00142 0 0 -1 261 284.078)"/><path d="M251 212.921 251 173.753 255.153 173.753 255.153 175.751 252 175.751 253.001 174.752 253.001 212.921ZM256.002 211.589 252 219.582 247.998 211.589Z" fill="#3A3A3A"/><path d="M382.999 277.341 382.999 244.554 430.258 244.554 429.257 245.553 429.257 174.752 430.258 175.751 406.131 175.751 406.131 173.753 431.258 173.753 431.258 246.552 384 246.552 385.001 245.553 385.001 277.341ZM388.002 276.009 384 284.001 379.998 276.009Z" fill="#3A3A3A"/><path d="M254.946 346.596 248.999 346.596 248.999 313.555 251.001 313.555 251.001 345.597 250 344.598 254.946 344.598ZM253.612 341.6 261.616 345.597 253.612 349.593Z" fill="#3A3A3A"/><path d="M6.66073-0.99911 12.5863-0.99911 12.5863 32.7367 10.588 32.7367 10.588 0 11.5872 0.99911 6.66073 0.99911ZM7.99288 3.99644 0 0 7.99288-3.99644Z" fill="#3A3A3A" transform="matrix(1.00142 0 0 -1 387 346.292)"/><text font-family="Aptos,Aptos_MSFontService,sans-serif" font-weight="700" font-size="15.1199" transform="matrix(1 0 0 0.998584 237.848 166)">yes</text><text font-family="Aptos,Aptos_MSFontService,sans-serif" font-weight="700" font-size="15.1199" transform="matrix(1 0 0 0.998584 407.916 167)">no</text><path d="M0.999158 6.66072 0.999214 14.4598-0.999005 14.4598-0.999061 6.66074ZM-3.99638 7.99291 0 0 3.9965 7.99285Z" fill="#3A3A3A" transform="matrix(1.00142 0 0 -1 329 141.28)"/><path d="M6.66072-0.99909 35.4427-0.999005 35.4427 0.999214 6.66072 0.999129ZM7.99287 3.99646 0 0 7.99289-3.99641Z" fill="#3A3A3A" transform="matrix(-1.00142 0 0 1 256.493 91.8697)"/><path d="M6.66072-0.99909 35.4427-0.999005 35.4427 0.999214 6.66072 0.999129ZM7.99287 3.99646 0 0 7.99289-3.99641Z" fill="#3A3A3A" transform="matrix(-1.00142 0 0 1 256.493 101.856)"/><path d="M6.66072-0.99909 35.4427-0.999005 35.4427 0.999214 6.66072 0.999129ZM7.99287 3.99646 0 0 7.99289-3.99641Z" fill="#3A3A3A" transform="matrix(-1.00142 0 0 1 256.493 110.843)"/><text fill="#156082" font-family="Aptos,Aptos_MSFontService,sans-serif" font-weight="700" font-size="14.4271" transform="matrix(6.12323e-17 0.99717 -1.00142 6.11457e-17 208.237 76)">Real time</text><text fill="#156082" font-family="Aptos,Aptos_MSFontService,sans-serif" font-weight="700" font-size="14.4271" transform="matrix(6.12323e-17 0.99717 -1.00142 6.11457e-17 190.212 44)">measurement data</text><path d="M5.5 124.657C5.5 110.685 16.8424 99.3591 30.8339 99.3591L132.166 99.3591C146.158 99.3591 157.5 110.685 157.5 124.657L157.5 249.812C157.5 263.784 146.158 275.11 132.166 275.11L30.8339 275.11C16.8424 275.11 5.5 263.784 5.5 249.812Z" stroke="#156082" stroke-width="3.00158" stroke-miterlimit="8" fill="#FFFFFF" fill-rule="evenodd"/><text fill="#156082" font-family="Aptos,Aptos_MSFontService,sans-serif" font-style="italic" font-weight="700" font-size="19.2362" transform="matrix(1 0 0 0.998584 57.6141 143)">RTDS</text><path d="M34.9505 18.9731 58.4172 18.9731 81.8839 18.9731 81.8839 19.9717 58.4172 19.9717 34.9505 19.9717Z" fill="#156082" fill-rule="evenodd" transform="matrix(1.00142 0 0 1 22.1021 125.196)"/><text font-family="Aptos,Aptos_MSFontService,sans-serif" font-weight="700" font-size="16.4786" transform="matrix(1 0 0 0.998584 24.1765 183)">Plant + Inverter</text><text font-family="Aptos,Aptos_MSFontService,sans-serif" font-weight="700" font-size="16.4786" transform="matrix(1 0 0 0.998584 38.284 203)">Controllers</text><text font-family="Aptos,Aptos_MSFontService,sans-serif" font-weight="700" font-size="16.4786" transform="matrix(1 0 0 0.998584 26.6979 223)">(real</text><text font-family="Aptos,Aptos_MSFontService,sans-serif" font-weight="700" font-size="16.4786" transform="matrix(1 0 0 0.998584 60.6957 223)">-</text><text font-family="Aptos,Aptos_MSFontService,sans-serif" font-weight="700" font-size="16.4786" transform="matrix(1 0 0 0.998584 66.3654 223)">time EMT</text><text font-family="Aptos,Aptos_MSFontService,sans-serif" font-weight="700" font-size="16.4786" transform="matrix(1 0 0 0.998584 38.2439 243)">simulation)</text><path d="M159.981 214.695 178.953 214.695 178.953 216.693 159.981 216.693ZM167.481 221.22 157.995 215.694 167.481 210.169C167.958 209.891 168.571 210.052 168.85 210.528 169.128 211.005 168.967 211.617 168.489 211.895L160.485 216.557 160.485 214.831 168.489 219.494C168.967 219.772 169.128 220.384 168.849 220.86 168.571 221.337 167.958 221.498 167.481 221.22Z" fill="#3A3A3A"/><path d="M476.5 122.66C476.5 108.688 487.842 97.3619 501.834 97.3619L603.166 97.3619C617.158 97.3619 628.5 108.688 628.5 122.66L628.5 247.815C628.5 261.786 617.158 273.113 603.166 273.113L501.834 273.113C487.842 273.113 476.5 261.786 476.5 247.815Z" stroke="#156082" stroke-width="3.00158" stroke-miterlimit="8" fill="#FFFFFF" fill-rule="evenodd"/><text fill="#156082" font-family="Aptos,Aptos_MSFontService,sans-serif" font-style="italic" font-weight="700" font-size="19.2362" transform="matrix(1 0 0 0.998584 516.344 142)">Host PC</text><path d="M22.9674 18.9731 46.6006 18.9731 70.2338 18.9731 93.8669 18.9731 93.8669 19.9717 70.2338 19.9717 46.6006 19.9717 22.9674 19.9717Z" fill="#156082" fill-rule="evenodd" transform="matrix(1.00142 0 0 1 493.005 123.922)"/><text font-family="Aptos,Aptos_MSFontService,sans-serif" font-weight="700" font-size="16.4786" transform="matrix(1 0 0 0.998584 497.101 182)">ControlDesk</text><text font-family="Aptos,Aptos_MSFontService,sans-serif" font-weight="700" font-size="16.4786" transform="matrix(1 0 0 0.998584 595.466 182)">&amp;</text><text font-family="Aptos,Aptos_MSFontService,sans-serif" font-weight="700" font-size="16.4786" transform="matrix(1 0 0 0.998584 525.009 202)">RSCAD</text><text font-family="Aptos,Aptos_MSFontService,sans-serif" font-weight="700" font-size="16.4786" transform="matrix(1 0 0 0.998584 505.298 222)">Monitoring +</text><text font-family="Aptos,Aptos_MSFontService,sans-serif" font-weight="700" font-size="16.4786" transform="matrix(1 0 0 0.998584 503.544 242)">Data Logging</text><path d="M1.97824-0.9991 20.9237-0.999005 20.9237 0.999214 1.97823 0.99912ZM9.46766 5.52557-0.00463047-7.11899e-08 9.46772-5.52547C9.94435-5.8035 10.5561-5.64251 10.8341-5.16588 11.1122-4.68925 10.9512-4.07748 10.4746-3.79945L2.48165 0.863022 2.48166-0.862997 10.4745 3.79955C10.9511 4.07759 11.1121 4.68936 10.8341 5.16599 10.5561 5.64261 9.94429 5.8036 9.46766 5.52557Z" fill="#3A3A3A" transform="matrix(-1.00142 0 0 1 178.953 159.773)"/><path d="M456.981 213.696 475.953 213.697 475.953 215.695 456.981 215.695ZM464.481 220.221 454.995 214.696 464.481 209.17C464.958 208.892 465.571 209.053 465.849 209.53 466.128 210.006 465.967 210.618 465.489 210.896L457.485 215.559 457.485 213.833 465.489 218.495C465.967 218.773 466.128 219.385 465.849 219.862 465.571 220.338 464.958 220.499 464.481 220.221Z" fill="#3A3A3A"/><path d="M1.97824-0.9991 20.9237-0.999005 20.9237 0.999214 1.97823 0.99912ZM9.46766 5.52557-0.00463047-7.11899e-08 9.46772-5.52547C9.94435-5.8035 10.5561-5.64251 10.8341-5.16588 11.1122-4.68925 10.9512-4.07748 10.4746-3.79945L2.48165 0.863022 2.48166-0.862997 10.4745 3.79955C10.9511 4.07759 11.1121 4.68936 10.8341 5.16599 10.5561 5.64261 9.94429 5.8036 9.46766 5.52557Z" fill="#3A3A3A" transform="matrix(-1.00142 0 0 1 475.953 161.771)"/><path d="M68.6852 2.79581 69.9225 2.79581 69.9225 17.7486 68.6852 17.7486ZM6.49392 2.79581 7.73128 2.79581 7.73128 17.7486 6.49392 17.7486Z" fill-rule="evenodd" transform="matrix(1.00142 0 0 1 270.832 161.294)"/><text font-family="Cambria Math,Cambria Math_MSFontService,sans-serif" font-weight="400" font-size="16.4786" transform="matrix(1 0 0 0.998584 280.571 176)">𝑷</text><text font-family="Cambria Math,Cambria Math_MSFontService,sans-serif" font-weight="400" font-size="12.0294" transform="matrix(1 0 0 0.998584 291.91 180)">𝒆</text><text font-family="Cambria Math,Cambria Math_MSFontService,sans-serif" font-weight="400" font-size="12.0294" transform="matrix(1 0 0 0.998584 291.91 170)">∗</text><text font-family="Cambria Math,Cambria Math_MSFontService,sans-serif" font-weight="400" font-size="16.4786" transform="matrix(1 0 0 0.998584 302.929 176)">−</text><text font-family="Cambria Math,Cambria Math_MSFontService,sans-serif" font-weight="400" font-size="16.4786" transform="matrix(1 0 0 0.998584 318.931 176)">𝑷</text><text font-family="Cambria Math,Cambria Math_MSFontService,sans-serif" font-weight="400" font-size="12.0294" transform="matrix(1 0 0 0.998584 330.27 180)">𝒆</text><text font-family="Cambria Math,Cambria Math_MSFontService,sans-serif" font-weight="400" font-size="16.4786" transform="matrix(1 0 0 0.998584 347.426 176)">&gt;</text><text font-family="Cambria Math,Cambria Math_MSFontService,sans-serif" font-weight="400" font-size="16.4786" transform="matrix(1 0 0 0.998584 364.342 176)">𝑷</text><text font-family="Cambria Math,Cambria Math_MSFontService,sans-serif" font-weight="400" font-size="12.0294" transform="matrix(1 0 0 0.998584 375.681 180)">𝒕𝒉</text></g></svg>